<?xml version="1.0" encoding="UTF-8" standalone="no"?>
<!DOCTYPE svg PUBLIC "-//W3C//DTD SVG 1.1//EN" "http://www.w3.org/Graphics/SVG/1.1/DTD/svg11.dtd">
<svg width="100%" height="100%" viewBox="0 0 559 591" version="1.1" xmlns="http://www.w3.org/2000/svg" xmlns:xlink="http://www.w3.org/1999/xlink" xml:space="preserve" xmlns:serif="http://www.serif.com/" style="fill-rule:evenodd;clip-rule:evenodd;stroke-linejoin:round;stroke-miterlimit:2;">
    <g transform="matrix(1,0,0,1,-231.49,-69.1402)">
        <g transform="matrix(0.438009,0,0,1,0,0)">
            <g transform="matrix(1.06685,-0.80937,1.84784,0.46729,577.202,363.642)">
                <circle cx="150.5" cy="478.5" r="53.5" style="fill:rgb(163,163,163);"/>
            </g>
        </g>
        <g transform="matrix(0.438009,0,0,1,0,0)">
            <g transform="matrix(1.06685,0.80937,-1.84784,0.46729,1432.68,120.022)">
                <circle cx="150.5" cy="478.5" r="53.5" style="fill:rgb(163,163,163);"/>
            </g>
        </g>
        <g transform="matrix(0.438009,0,0,1,0,0)">
            <g transform="matrix(2.1337,0,0,0.934579,844.379,-328.056)">
                <circle cx="150.5" cy="478.5" r="53.5" style="fill:rgb(163,163,163);"/>
            </g>
        </g>
        <g transform="matrix(0.438009,0,0,1,0,0)">
            <g transform="matrix(1.8054,0,0,0.790783,243.842,73.2258)">
                <path d="M592.995,244.637C627.864,224.505 656.1,194.635 674.242,158.69C682.68,141.982 695.921,127.477 713.326,117.428C761.123,89.833 822.333,106.234 849.928,154.031C877.524,201.828 861.123,263.038 813.326,290.633C793.404,302.136 771.151,305.994 749.975,303.122C719.54,298.952 688.582,305.026 661.979,320.386C661.932,320.305 661.932,320.305 661.932,320.305C632.249,337.478 608.37,363.126 593.358,393.959C590.738,399.337 587.852,404.739 584.727,409.86C568.922,435.836 560.562,465.657 560.562,496.064C560.5,496.064 560.5,496.064 560.5,496.064C560.516,526.779 570.741,556.617 589.567,580.886C602.715,597.733 610.5,618.934 610.5,641.938C610.5,697.13 565.692,741.938 510.5,741.938C455.308,741.938 410.5,697.13 410.5,641.938C410.5,618.937 418.282,597.74 431.354,580.838C450.187,556.555 460.407,526.699 460.407,495.969C460.5,495.931 460.5,495.892 460.5,495.854C460.5,465.155 450.281,435.33 431.455,411.081C425.915,404.075 421.372,396.261 417.935,387.879C406.381,359.491 385.699,335.761 359.156,320.436C359.169,320.364 359.148,320.352 359.126,320.339C332.479,304.955 301.472,298.867 270.985,303.034C249.83,305.991 227.588,302.131 207.674,290.633C159.877,263.038 143.476,201.828 171.072,154.031C198.667,106.234 259.877,89.833 307.674,117.428C325.079,127.477 338.32,141.982 346.79,158.673C364.929,194.612 393.161,224.476 428.024,244.605C428.006,244.637 428.006,244.637 428.006,244.637C445.711,254.859 466.676,257.86 486.538,253.016C494.197,251.006 502.232,250 510.5,250C518.768,250 526.803,251.006 534.49,252.901C554.322,257.738 575.256,254.742 592.935,244.535C592.994,244.637 592.994,244.637 592.995,244.637Z" style="fill:rgb(76,27,151);"/>
            </g>
        </g>
    </g>
</svg>
