<?xml version="1.0" standalone="no"?>
<!DOCTYPE svg PUBLIC "-//W3C//DTD SVG 20010904//EN"
 "http://www.w3.org/TR/2001/REC-SVG-20010904/DTD/svg10.dtd">
<svg version="1.0" xmlns="http://www.w3.org/2000/svg"
 width="591.000000pt" height="591.000000pt" viewBox="0 0 591.000000 591.000000"
 preserveAspectRatio="xMidYMid meet">
<metadata>
Created by potrace 1.11, written by Peter Selinger 2001-2013
</metadata>
<g transform="translate(0.000000,591.000000) scale(0.100000,-0.100000)"
fill="#000000" stroke="none">
<path d="M2827 5895 c-184 -50 -325 -197 -365 -380 -9 -40 -8 -181 2 -225 16
-74 69 -164 135 -230 106 -106 222 -152 369 -146 140 6 228 43 324 139 93 93
103 110 138 225 63 214 -36 457 -230 563 -14 8 -27 16 -30 19 -3 4 -30 14 -60
24 -69 23 -217 29 -283 11z"/>
<path d="M898 5045 c-2 -2 -25 -5 -53 -8 -75 -8 -125 -19 -131 -28 -3 -5 -12
-9 -21 -9 -29 0 -156 -66 -213 -110 -98 -76 -196 -191 -236 -280 -30 -64 -46
-102 -49 -118 -2 -9 -10 -46 -19 -82 -11 -46 -14 -98 -11 -180 7 -215 84 -392
232 -537 180 -175 411 -251 668 -219 69 9 238 9 275 1 14 -3 39 -7 57 -10 133
-18 316 -95 449 -191 83 -58 143 -118 254 -251 5 -7 10 -15 10 -18 0 -4 13
-25 28 -48 16 -23 41 -69 56 -102 61 -133 132 -255 148 -255 5 0 8 -7 8 -15 0
-8 4 -15 8 -15 7 0 22 -25 87 -146 12 -23 24 -50 28 -60 3 -11 15 -46 27 -79
12 -33 24 -71 26 -85 2 -14 6 -34 9 -46 20 -91 24 -226 9 -340 -19 -139 -37
-205 -89 -318 -33 -73 -54 -106 -164 -270 -39 -57 -94 -176 -105 -226 -21 -93
-24 -128 -21 -230 2 -63 5 -122 7 -130 29 -110 101 -280 120 -280 4 0 8 -6 8
-14 0 -21 149 -169 215 -213 77 -51 177 -94 255 -109 14 -3 41 -9 61 -13 49
-11 246 -5 289 9 19 6 46 13 60 16 54 10 208 95 280 155 41 35 76 66 78 70 3
8 50 70 73 97 34 41 94 185 115 277 11 47 13 246 4 290 -5 22 -12 54 -15 70
-6 30 -12 46 -42 115 -26 61 -45 93 -104 175 -31 44 -73 110 -93 147 -37 68
-90 198 -81 198 3 0 -1 14 -10 30 -9 17 -13 30 -11 30 3 0 1 13 -4 29 -30 106
-30 345 1 477 6 27 13 60 15 74 14 72 109 300 144 345 4 6 31 55 60 110 85
160 90 168 163 265 109 145 317 315 472 387 33 15 62 28 65 28 3 1 42 13 87
28 45 14 103 30 130 34 49 8 261 9 433 1 52 -2 100 -2 105 1 6 3 21 7 35 8
211 24 448 191 559 395 27 48 85 187 82 196 -1 1 -1 3 0 5 13 49 18 248 7 317
-16 102 -65 221 -131 320 -38 57 -164 179 -214 207 -94 54 -116 64 -186 88
-41 13 -92 28 -113 31 -62 10 -195 11 -244 2 -25 -5 -58 -11 -75 -14 -58 -10
-203 -72 -250 -106 -93 -70 -195 -167 -195 -188 0 -5 -4 -10 -8 -12 -4 -1 -25
-32 -46 -68 -20 -36 -42 -72 -47 -80 -5 -8 -13 -24 -18 -35 -5 -11 -25 -44
-45 -74 -20 -29 -36 -56 -36 -60 0 -4 -8 -14 -17 -23 -10 -8 -29 -31 -42 -49
-37 -51 -241 -250 -292 -284 -24 -16 -45 -33 -47 -37 -2 -5 -8 -8 -12 -8 -5 0
-29 -14 -54 -30 -64 -44 -162 -87 -232 -103 -70 -16 -202 -15 -289 3 -103 20
-242 28 -285 15 -8 -2 -32 -6 -52 -9 -21 -3 -57 -10 -82 -16 -55 -12 -211 -6
-262 10 -103 33 -263 123 -360 202 -55 46 -231 224 -260 263 -16 22 -35 46
-42 54 -14 15 -167 272 -167 281 0 13 -65 91 -127 152 -71 71 -195 150 -263
170 -22 6 -44 15 -50 19 -5 4 -27 10 -49 13 -21 4 -42 8 -46 11 -9 5 -187 15
-192 10z"/>
<path d="M875 2443 c-28 -5 -129 -37 -135 -43 -3 -3 -22 -14 -43 -24 -43 -22
-122 -95 -158 -146 -28 -39 -65 -121 -74 -166 -12 -53 -14 -169 -3 -220 15
-76 73 -184 129 -242 50 -52 152 -119 192 -126 12 -3 22 -5 22 -6 0 -1 7 -3
15 -5 8 -2 26 -7 40 -10 33 -8 136 -8 180 0 48 8 170 56 170 67 0 4 6 8 13 8
35 0 179 174 194 235 1 5 9 33 17 60 20 71 15 215 -11 287 -54 147 -188 276
-328 313 -16 5 -37 10 -45 12 -21 6 -151 10 -175 6z"/>
<path d="M4875 2443 c-253 -44 -433 -264 -424 -515 3 -78 22 -146 62 -222 31
-58 123 -159 162 -178 11 -5 36 -18 55 -28 32 -17 80 -34 135 -47 43 -9 145
-4 205 11 168 43 303 169 356 333 9 26 18 89 19 138 3 75 -1 103 -21 165 -14
41 -30 77 -35 81 -6 3 -10 10 -9 14 2 4 -15 30 -36 57 -57 76 -166 151 -249
173 -16 5 -37 10 -45 12 -21 6 -151 10 -175 6z"/>
</g>
</svg>
